<svg width="344" height="344" fill="none" xmlns="http://www.w3.org/2000/svg"><circle cx="172" cy="172" r="172" fill="#38A169"/><path d="M118.039 245.031c-15.641 0-28.336-4.909-38.086-14.726-9.682-9.886-14.523-23.021-14.523-39.407v-3.046c0-10.969 2.099-20.753 6.297-29.352 4.265-8.667 10.224-15.404 17.875-20.211 7.65-4.807 16.182-7.211 25.593-7.211 14.964 0 26.508 4.774 34.633 14.32 8.193 9.547 12.289 23.055 12.289 40.524v9.953H90.313c.744 9.073 3.757 16.25 9.039 21.531 5.349 5.282 12.052 7.922 20.109 7.922 11.307 0 20.516-4.57 27.625-13.711l13.305 12.695c-4.401 6.568-10.292 11.68-17.672 15.336-7.313 3.589-15.539 5.383-24.68 5.383zm-2.945-94.148c-6.771 0-12.255 2.37-16.453 7.109-4.13 4.74-6.771 11.341-7.922 19.805h47.023v-1.828c-.541-8.261-2.742-14.49-6.601-18.688-3.86-4.265-9.209-6.398-16.047-6.398zm61.648 36.359c0-16.927 3.927-30.502 11.781-40.726 7.855-10.292 18.383-15.438 31.586-15.438 11.646 0 21.058 4.063 28.235 12.188V87h24.679v156H250.68l-1.219-11.375c-7.38 8.937-17.232 13.406-29.555 13.406-12.864 0-23.291-5.179-31.281-15.539-7.922-10.359-11.883-24.443-11.883-42.25zm24.68 2.133c0 11.172 2.133 19.906 6.398 26.203 4.334 6.229 10.461 9.344 18.383 9.344 10.089 0 17.469-4.503 22.141-13.508v-46.922c-4.537-8.802-11.849-13.203-21.938-13.203-7.989 0-14.151 3.182-18.484 9.547-4.333 6.297-6.5 15.81-6.5 28.539z" fill="#fff"/></svg>